<svg width="96" height="54" viewBox="0 0 96 54" fill="none" xmlns="http://www.w3.org/2000/svg">
<path d="M26.8681 40.535C26.8681 41.255 26.6851 41.894 26.3191 42.452C25.9591 43.004 25.4371 43.439 24.7531 43.757C24.0691 44.069 23.2351 44.225 22.2511 44.225C21.3031 44.225 20.4571 44.081 19.7131 43.793C18.9691 43.505 18.3361 43.109 17.8141 42.605L18.8311 41.462C19.2631 41.864 19.7581 42.182 20.3161 42.416C20.8741 42.65 21.5251 42.767 22.2691 42.767C22.7551 42.767 23.2051 42.689 23.6191 42.533C24.0391 42.371 24.3751 42.131 24.6271 41.813C24.8851 41.489 25.0141 41.084 25.0141 40.598C25.0141 40.208 24.9361 39.878 24.7801 39.608C24.6301 39.338 24.3631 39.098 23.9791 38.888C23.5951 38.678 23.0581 38.471 22.3681 38.267C21.5281 38.015 20.8081 37.736 20.2081 37.43C19.6141 37.118 19.1581 36.737 18.8401 36.287C18.5281 35.837 18.3721 35.285 18.3721 34.631C18.3721 33.989 18.5491 33.425 18.9031 32.939C19.2571 32.447 19.7431 32.063 20.3611 31.787C20.9851 31.511 21.6961 31.373 22.4941 31.373C23.3641 31.373 24.1231 31.499 24.7711 31.751C25.4251 31.997 26.0131 32.354 26.5351 32.822L25.5451 33.938C25.1071 33.548 24.6331 33.266 24.1231 33.092C23.6131 32.912 23.0971 32.822 22.5751 32.822C22.1371 32.822 21.7381 32.888 21.3781 33.02C21.0181 33.146 20.7301 33.335 20.5141 33.587C20.3041 33.839 20.1991 34.16 20.1991 34.55C20.1991 34.892 20.2921 35.186 20.4781 35.432C20.6641 35.672 20.9791 35.897 21.4231 36.107C21.8671 36.311 22.4701 36.527 23.2321 36.755C23.8981 36.947 24.5071 37.187 25.0591 37.475C25.6111 37.763 26.0491 38.15 26.3731 38.636C26.7031 39.116 26.8681 39.749 26.8681 40.535ZM37.3371 43.514C37.0011 43.73 36.5961 43.901 36.1221 44.027C35.6481 44.159 35.1741 44.225 34.7001 44.225C33.6441 44.225 32.8341 43.949 32.2701 43.397C31.7121 42.845 31.4331 42.128 31.4331 41.246V35.81H29.2821V34.514H31.4331V32.372L33.1611 32.165V34.514H36.4011L36.2031 35.81H33.1611V41.228C33.1611 41.75 33.2931 42.143 33.5571 42.407C33.8271 42.671 34.2741 42.803 34.8981 42.803C35.2521 42.803 35.5761 42.761 35.8701 42.677C36.1641 42.593 36.4371 42.485 36.6891 42.353L37.3371 43.514ZM42.154 34.514V41.192C42.154 41.792 42.277 42.224 42.523 42.488C42.769 42.746 43.144 42.875 43.648 42.875C44.134 42.875 44.596 42.734 45.034 42.452C45.472 42.17 45.814 41.834 46.06 41.444V34.514H47.788V44H46.303L46.177 42.749C45.817 43.223 45.364 43.589 44.818 43.847C44.272 44.099 43.72 44.225 43.162 44.225C42.244 44.225 41.557 43.976 41.101 43.478C40.651 42.98 40.426 42.29 40.426 41.408V34.514H42.154ZM56.853 30.491L58.581 30.698V44H57.06L56.916 42.785C56.58 43.265 56.184 43.625 55.728 43.865C55.272 44.105 54.774 44.225 54.234 44.225C53.418 44.225 52.743 44.018 52.209 43.604C51.681 43.184 51.288 42.602 51.03 41.858C50.772 41.114 50.643 40.25 50.643 39.266C50.643 38.306 50.79 37.454 51.084 36.71C51.384 35.96 51.81 35.369 52.362 34.937C52.92 34.505 53.592 34.289 54.378 34.289C54.9 34.289 55.365 34.382 55.773 34.568C56.181 34.748 56.541 35.015 56.853 35.369V30.491ZM54.828 35.648C54.09 35.648 53.517 35.945 53.109 36.539C52.701 37.133 52.497 38.042 52.497 39.266C52.497 40.076 52.581 40.748 52.749 41.282C52.917 41.816 53.16 42.212 53.478 42.47C53.796 42.728 54.186 42.857 54.648 42.857C55.146 42.857 55.575 42.713 55.935 42.425C56.301 42.137 56.607 41.804 56.853 41.426V36.791C56.607 36.431 56.31 36.152 55.962 35.954C55.62 35.75 55.242 35.648 54.828 35.648ZM66.98 34.514V42.686H69.617V44H62.363V42.686H65.252V35.828H62.453V34.514H66.98ZM65.693 29.978C66.053 29.978 66.341 30.089 66.557 30.311C66.779 30.533 66.89 30.803 66.89 31.121C66.89 31.451 66.779 31.73 66.557 31.958C66.341 32.18 66.053 32.291 65.693 32.291C65.339 32.291 65.051 32.18 64.829 31.958C64.613 31.73 64.505 31.451 64.505 31.121C64.505 30.803 64.613 30.533 64.829 30.311C65.051 30.089 65.339 29.978 65.693 29.978ZM76.5039 34.289C77.4099 34.289 78.1689 34.493 78.7809 34.901C79.3989 35.309 79.8639 35.885 80.1759 36.629C80.4939 37.367 80.6529 38.24 80.6529 39.248C80.6529 40.226 80.4909 41.09 80.1669 41.84C79.8489 42.584 79.3809 43.169 78.7629 43.595C78.1449 44.015 77.3859 44.225 76.4859 44.225C75.5859 44.225 74.8239 44.021 74.1999 43.613C73.5819 43.205 73.1139 42.629 72.7959 41.885C72.4779 41.141 72.3189 40.268 72.3189 39.266C72.3189 38.282 72.4779 37.418 72.7959 36.674C73.1199 35.924 73.5939 35.339 74.2179 34.919C74.8419 34.499 75.6039 34.289 76.5039 34.289ZM76.5039 35.666C75.7239 35.666 75.1359 35.96 74.7399 36.548C74.3439 37.13 74.1459 38.036 74.1459 39.266C74.1459 40.484 74.3409 41.387 74.7309 41.975C75.1209 42.557 75.7059 42.848 76.4859 42.848C77.2659 42.848 77.8509 42.557 78.2409 41.975C78.6309 41.387 78.8259 40.478 78.8259 39.248C78.8259 38.024 78.6309 37.121 78.2409 36.539C77.8569 35.957 77.2779 35.666 76.5039 35.666Z" fill="#1E1E1E"/>
<path d="M30.4703 7.982V11.102H26.7523V22.867H30.4703V26H18.7703V22.867H22.4883V11.102H18.7703V7.982H30.4703ZM47.0092 13.455C47.0092 14.313 46.8488 15.0627 46.5282 15.704C46.2075 16.3453 45.7742 16.887 45.2282 17.329C44.6822 17.771 44.0712 18.1263 43.3952 18.395L48.1142 26H43.2912L39.3912 19.11H38.1822V26H33.9182V7.982H39.5862C42.0388 7.982 43.8892 8.42833 45.1372 9.321C46.3852 10.2137 47.0092 11.5917 47.0092 13.455ZM42.6152 13.455C42.6152 12.5883 42.3595 11.96 41.8482 11.57C41.3455 11.1713 40.5958 10.972 39.5992 10.972H38.1822V16.185H39.7682C40.6955 16.185 41.4018 15.9683 41.8872 15.535C42.3725 15.1017 42.6152 14.4083 42.6152 13.455ZM61.65 7.982V11.102H57.932V22.867H61.65V26H49.95V22.867H53.668V11.102H49.95V7.982H61.65ZM78.3578 20.735C78.3578 21.853 78.0632 22.841 77.4738 23.699C76.8932 24.557 76.0568 25.2287 74.9648 25.714C73.8728 26.1993 72.5598 26.442 71.0258 26.442C69.3272 26.442 67.9015 26.195 66.7488 25.701C65.6048 25.1983 64.6558 24.5787 63.9018 23.842L66.0598 21.45C66.7272 22.0307 67.4638 22.4813 68.2698 22.802C69.0758 23.114 69.9598 23.27 70.9218 23.27C71.5198 23.27 72.0442 23.1833 72.4948 23.01C72.9455 22.8367 73.2965 22.5853 73.5478 22.256C73.7992 21.9267 73.9248 21.528 73.9248 21.06C73.9248 20.618 73.8252 20.2453 73.6258 19.942C73.4265 19.6387 73.0885 19.3657 72.6118 19.123C72.1438 18.8803 71.4895 18.6333 70.6488 18.382C69.2448 17.9487 68.1138 17.472 67.2558 16.952C66.4065 16.432 65.7868 15.8297 65.3968 15.145C65.0155 14.4603 64.8248 13.663 64.8248 12.753C64.8248 11.6523 65.1282 10.712 65.7348 9.932C66.3502 9.152 67.1735 8.55833 68.2048 8.151C69.2362 7.735 70.3715 7.527 71.6108 7.527C73.0062 7.527 74.2368 7.73067 75.3028 8.138C76.3688 8.53667 77.2918 9.10867 78.0718 9.854L76.0568 12.168C75.4502 11.6567 74.7958 11.2797 74.0938 11.037C73.3918 10.7857 72.6768 10.66 71.9488 10.66C71.4115 10.66 70.9392 10.7293 70.5318 10.868C70.1245 10.998 69.8082 11.193 69.5828 11.453C69.3575 11.713 69.2448 12.038 69.2448 12.428C69.2448 12.8093 69.3532 13.13 69.5698 13.39C69.7865 13.65 70.1635 13.897 70.7008 14.131C71.2382 14.3563 71.9835 14.6207 72.9368 14.924C74.0722 15.2707 75.0428 15.6867 75.8488 16.172C76.6635 16.6487 77.2832 17.251 77.7078 17.979C78.1412 18.707 78.3578 19.6257 78.3578 20.735Z" fill="#0097FB"/>
<path d="M87.9603 9.756C88.999 9.756 89.8477 10.0727 90.5063 10.706C91.1397 11.3393 91.4563 12.226 91.4563 13.366L91.4563 21.498C91.4563 22.6127 91.811 23.4487 92.5203 24.006C93.2043 24.5887 94.0783 24.88 95.1423 24.88L95.1423 28.794C94.0783 28.794 93.2043 29.0727 92.5203 29.63C91.811 30.2127 91.4563 31.0487 91.4563 32.138L91.4563 40.27C91.4563 41.41 91.1397 42.2967 90.5063 42.93C89.8477 43.5633 88.999 43.88 87.9603 43.88L84.1223 43.88L84.1223 40.384L87.0103 40.384L87.0103 31.834C87.0103 31.226 87.1117 30.6433 87.3143 30.086C87.517 29.554 87.7957 29.0727 88.1503 28.642C88.505 28.2113 88.923 27.844 89.4043 27.54C89.8603 27.2613 90.3543 27.0713 90.8863 26.97L90.8863 26.666C90.3543 26.5647 89.8603 26.362 89.4043 26.058C88.923 25.7793 88.505 25.4247 88.1503 24.994C87.7957 24.5633 87.517 24.0693 87.3143 23.512C87.1117 22.98 87.0103 22.41 87.0103 21.802L87.0103 13.252L84.1223 13.252L84.1223 9.756L87.9603 9.756Z" fill="#1E1E1E"/>
<path d="M8.03966 44.244C7.00099 44.244 6.15232 43.9273 5.49366 43.294C4.86032 42.6607 4.54366 41.774 4.54366 40.634L4.54366 32.502C4.54366 31.3873 4.18899 30.5513 3.47966 29.994C2.79566 29.4113 1.92166 29.12 0.857656 29.12L0.857656 25.206C1.92166 25.206 2.79566 24.9273 3.47966 24.37C4.18899 23.7873 4.54366 22.9513 4.54366 21.862L4.54366 13.73C4.54366 12.59 4.86032 11.7033 5.49366 11.07C6.15232 10.4367 7.00099 10.12 8.03966 10.12H11.8777V13.616H8.98966L8.98966 22.166C8.98966 22.774 8.88832 23.3567 8.68566 23.914C8.48299 24.446 8.20432 24.9273 7.84966 25.358C7.49499 25.7887 7.07699 26.156 6.59566 26.46C6.13966 26.7387 5.64566 26.9287 5.11366 27.03V27.334C5.64566 27.4353 6.13966 27.638 6.59566 27.942C7.07699 28.2207 7.49499 28.5753 7.84966 29.006C8.20432 29.4367 8.48299 29.9307 8.68566 30.488C8.88832 31.02 8.98966 31.59 8.98966 32.198L8.98966 40.748H11.8777V44.244H8.03966Z" fill="#1E1E1E"/>
</svg>
